# xmcd CD database file
#
# Track frame offsets:
#	150
#	10409
#	24566
#	35882
#	49935
#	59475
#	72854
#	83696
#	95063
#	106623
#	116374
#	125788
#	139620
#	154103
#	167552
#	184191
#
# Disc length: 2613 seconds
#
# Revision: 1
# Processed by: cddbd v1.5.2PL0 Copyright (c) Steve Scherf et al.
# Submitted via: CDex 1.51
#
DISCID=d90a3310
DTITLE=Big Town Playboys - Western World
DYEAR=2001
DGENRE=Blues
TTITLE0=Calling Baby
TTITLE1=Don't Know Where She Went
TTITLE2=You Know - Yeah
TTITLE3=Hey Hey Now Baby
TTITLE4=Do What You want To Do
TTITLE5=I've Got A Brand New Home
TTITLE6=Love You Baby
TTITLE7=Cry Hard Luck
TTITLE8=Hurry Up, Train
TTITLE9=Where you At
TTITLE10=Nit Wit
TTITLE11=Live Is Suicide
TTITLE12=Can't Stop Lovin'
TTITLE13=Come Home
TTITLE14=Tailer Made
TTITLE15=Is It True
EXTD=YEAR: 2001
EXTT0=
EXTT1=
EXTT2=
EXTT3=
EXTT4=
EXTT5=
EXTT6=
EXTT7=
EXTT8=
EXTT9=
EXTT10=
EXTT11=
EXTT12=
EXTT13=
EXTT14=
EXTT15=
PLAYORDER=
